<svg xmlns="http://www.w3.org/2000/svg" viewBox="0 0 1142.1 401.35" preserveAspectRatio="none"><defs><style>.cls-1{fill:#b2d567;}</style></defs><title>about_greenborder</title><g id="Layer_2" data-name="Layer 2"><g id="Layer_1-2" data-name="Layer 1"><path class="cls-1" d="M1140.5,342.75c1.6-47.1-2.2-71-1.4-119.7,0-43.3-.9-74-.1-115.6-1.8-6.8-1.6-27-1.3-49.4.2-11.2.3-22.9.4-33.8V10.55a5.85,5.85,0,0,0-.2-1.3l-.1-.6-.2-.6c-1.2-3.3-4.4-5.8-8-7a18.36,18.36,0,0,0-5.7-.9h-2.2c-.7,0-1.3.1-2,.1-27.7.3-42.7,1.4-21.6,1.8-38.3.1-28.5-1-60.5-.6l10.8-.9c-10.5-.2-22.2-.7-36-.5L996.8,1c-9.7-.3-18.4-.3-26.6-.3v6.2c7.2,0,16.2-.1,30.3-.3,50.4.5,42.7-1.4,64.2-2l48.2,1.1-1.1-.2c3.6-.2,6.6-.3,9.2-.4.7,0,1.3-.1,1.9-.1h1.5a9.23,9.23,0,0,1,2.5.5,7.63,7.63,0,0,1,3.7,2.5,6.63,6.63,0,0,1,.9,1.9c0,.2.1.3.1.5v1.9c0,7.7-.3,19.1-.2,44.4l1-2.3c-1.1,17,.5,24.3.4,46.1.1,10.7-1.6,43.5-.4,62.3-1,38.4,2,57,1.8,90-.7,19.8,1,33.9-.7,37.7v-3.6l-1.6,7.4,1.2.9c-.4,11.9,0,29-1.3,39.2l2.1,27.6c-.2-6.8-.1-14.3.1-21.8l-.3.8c0-7.2-.3-24.7.2-33l.4,10c.3-11.5.8-1.9,1,1.3-.6,23,.6,16.7.8,34.3-.1,4-.3,11.5-.6,8.7.1,5.2-.1,14.6-.1,22.8V391a7.54,7.54,0,0,1-.9,2.9,7.87,7.87,0,0,1-1.8,2.2,13.28,13.28,0,0,1-4.1,2.5c-1.2.5-1.9.7-2.1.8a18.3,18.3,0,0,1-3.2.2,13.53,13.53,0,0,0,6.9-.2,14.25,14.25,0,0,0,4.7-2.2,11.35,11.35,0,0,0,3.7-4.4,7.84,7.84,0,0,0,.5-1.4c.1-.2.1-.5.2-.8s.1-.4.1-.7a20.69,20.69,0,0,1,.4-2.2c.2-1.5.5-3,.8-4.7q.75-4.95,1.5-10.5C1141.4,361.55,1141,351.45,1140.5,342.75Z"/><path class="cls-1" d="M998.3,399.05c47.6,1,104.3-.5,124.6-1.5-56.9-1.2-110.3.7-153-1.3v2.3C979.8,398.75,989.3,398.85,998.3,399.05Z"/><path class="cls-1" d="M1041.1,395.35l-16.4-.5,13.3-.3c-6.8-.5,10.8-.9,8.8-1.4H998.4c25.9.4,8.8,1,1.3,1.5l-24.9-.2c5.8.2,21.2.4,3,.7H970v.9C1007.5,396.55,1010.8,396.05,1041.1,395.35Z"/><path class="cls-1" d="M187.6,398.55c-1,0-2-.1-3-.1h3v-1c-8.6,0-18.3.1-26.8-.1l19.9-1.1c-30.6.8-53.6-1.2-84.2-.4l-9.3-1.1-28.8.1,3.3-.4-34.6-.1c-4.7,0-8.4.1-11.3.2a14.77,14.77,0,0,0-2.1.1H11.6a5.84,5.84,0,0,1-2.3-.6,2.67,2.67,0,0,1-.7-1.4v-3.4c0-2.6,0-5-.1-7.2,0-4.5,0-8.2.2-10.4l.9,12.5.3-11.6c-.3,7.9-.6-9.6-.9-12.5.2-25.9.1-18.3.8-34.6-.6-16.8.5-37.4-.7-38.4.7-30.7.7-63.3.7-92.5L9,181.85c.8-34.6-.2-50.3-.4-86.2l.3,2.8L8,79c.3-13.6.1-23-.2-32.9-.1-5-.2-10.1-.2-15.9,0-2.9,0-6,.1-9.4,0-1.7.1-3.4.1-5.2a27.15,27.15,0,0,1,.1-2.8v-1.3c0-.2.1-.4.1-.6a3.45,3.45,0,0,1,2-2.1,8.8,8.8,0,0,1,1.5-.5,11.06,11.06,0,0,1,2.3-.1H27.5c8.5-.1,15.8-.2,22.1-.3,12.7-.4,21.5-.9,28.8-1.5,21.9-.6,49.5.2,69.3.3l-12.9.4,16.4.5c17.5-.1,24.8,0,36.4-.1V1.25c-23.9.1-43.8.9-74.7.5,27,.7-12.4.5-9.4,1.3-6.3-.4-31.3-.5-22.8-.8-17.4-.2-34.3.1-49.3.3-3.7,0-7.4.1-10.9.1H11.6c-.4,0-.9.1-1.3.1a13.79,13.79,0,0,0-8.1,4.3,7.46,7.46,0,0,0-1.7,3.3c-.1.3-.1.6-.2.8s-.1.5-.1.8c-.1.5-.1,1-.2,1.4L.5,23c.8,16.4-.2,29.5-.5,44.6l.7,2.1c.4,10,.3,28.3-.3,37-.4,26.3,1.1,59.2,1.9,86.4-.7,27,1.2,15.3,1.7,39.6-.4,15.5.5,42.3-.4,51.8C3.5,263,1.6,260,2,237.25c-.6,8.7-.7-38.4-1.6-18.1,1.6,43.6.1,97.7,1.7,137.7-.7-1.4-1,11-1,26v9.3l.1.8a8.33,8.33,0,0,0,.4,1.5,9.52,9.52,0,0,0,4.8,4.9,12.07,12.07,0,0,0,3.8,1.2,26.14,26.14,0,0,0,3.9.2c9.9-.1,18.7-.1,24.6-.2l1.5.4c20.2.2,35.2.3,67.3-.2,27.6-.1,55-.2,80.3,0v-2.2Z"/><polygon class="cls-1" points="187.6 397.55 970 395.25 970 398.65 466.1 401.35 187.6 400.95 187.6 397.55"/><polyline class="cls-1" points="187.6 1.25 970 0.45 970 6.65 834.1 4.45 650.1 4.95 332.6 6.95 191.1 4.95 187.6 7.45"/></g></g></svg>