<svg xmlns="http://www.w3.org/2000/svg" preserveAspectRatio="none" viewBox="0 0 343 1063.19"><defs><style>.cls-1{fill:#b2d567;}</style></defs><g id="Layer_2" data-name="Layer 2"><g id="Layer_1-2" data-name="Layer 1"><path class="cls-1" d="M340,591.33c0-114.76-.9-196.12-.1-306.37-1.79-18-1.6-71.56-1.3-130.93.2-29.68.3-60.69.4-89.58V28.14c0-1.16-.08-2.32-.2-3.45l-.1-1.59-.2-1.59c-1.19-8.74-4.37-15.37-7.95-18.55A8.67,8.67,0,0,0,324.9.58h-2.19c-.7,0-1.3.26-2,.26-27.56.8-42.48,3.71-21.49,4.77-5.29,0-9.65,0-13.33-.05V0L232.5.55C226.74.24,220.61.06,214,.31l-2.8.46L50.9,2.41V5.76c-10.59-.3-20.83.4-30,.88-2.46,0-4.93.27-7.26.27H7.72c-.27,0-.6.26-.86.26-2.08,1.24-4,5.26-5.4,11.4A57,57,0,0,0,.33,27.32c-.06.8-.06,1.59-.13,2.12a19,19,0,0,0-.07,2.12C.07,32.89.07,34.21,0,35.27L.33,60.85C.87,104.33.2,139.06,0,179.08l.47,5.57c.26,26.51.2,75-.2,98.08C0,352.45,1,439.67,1.53,511.77c-.47,71.57.8,40.56,1.13,105C2.4,657.83,3,728.88,2.4,754.06c-.07-57-1.34-64.95-1.07-125.25-.4,23.06-.46-101.8-1.06-48,1.06,115.58.06,259,1.13,365C.93,942.14.73,975,.73,1014.77v24.66l.07,2.12c.06,1.35.15,2.68.26,4,.63,5.76,1.77,10.39,3.2,13a7.16,7.16,0,0,0,2.53,3.18,4.58,4.58,0,0,0,2.59.53c6.59-.26,12.45-.26,16.38-.53l1,1.06a361.42,361.42,0,0,0,40.06-.25l73.15.69,151.94-5.33v-1.42c2.64.36,5.2.59,7.63,1a77.12,77.12,0,0,0,18.46.35v.93a71.21,71.21,0,0,0,7.81.45,6.38,6.38,0,0,1-1.51.07,5.58,5.58,0,0,0,6.86-.53l0,0c2.18-.37,4.49-.92,8.05-1.54l-4.9-1.14,4-.67c-2-1.14,3.23-2,2.63-3.17H336.2a42.71,42.71,0,0,0,3.32-10.94c.21-1.19.37-2.43.5-3.71.1-.53.1-1.32.19-2.12a11.48,11.48,0,0,0,.1-1.85c.1-2,.23-3.91.4-5.83.2-4,.5-8,.8-12.46q.75-13.12,1.49-27.83c-.7-29-1.09-55.79-1.59-78.85C343,783.74,339.22,720.4,340,591.33Zm-3.59,369.06c.1,13.78-.09,38.69-.09,60.43v15.63a47.11,47.11,0,0,1-.9,7.69,29.79,29.79,0,0,1-1.79,5.83c-.33.78-.67,1.5-1,2.19h-6.14c2.95.34,4,.76,4.12,1.19-14.31-1-27.65,1.56-38.7-1.92v-.27H291l-166.13,3.2v-.89c-5.73,0-12.18.26-17.84-.27l13.24-2.91c-20.36,2.12-35.67-3.19-56-1.06L58,1046.32l-19.17.26,2.2-1.06-23-.26a52.89,52.89,0,0,0-7.52.53,2.58,2.58,0,0,0-1.4.26H7.72c-.53-.1-1-.64-1.53-1.59a20.54,20.54,0,0,1-.47-3.71v-9c0-6.89,0-13.26-.06-19.09,0-11.93,0-21.73.13-27.57l.6,33.14.2-30.75c-.2,20.94-.4-25.45-.6-33.14.13-68.65.07-48.51.53-91.72-.4-44.53.34-99.14-.46-101.79.46-81.38.46-167.8.46-245.21L6,482c.53-91.72-.13-133.34-.27-228.51l.2,7.42-.6-51.56c.2-36.05.07-61-.13-87.21-.06-13.25-.13-26.77-.13-42.15,0-7.69,0-15.9.07-24.92,0-4.5.06-9,.06-13.78,0-2.48,0-5,.07-7.42V30.37c0-.53.06-1.06.06-1.59a14,14,0,0,1,1.34-5.57,5.66,5.66,0,0,1,1-1.32,2,2,0,0,1,1.54-.27H18.3c5.66-.26,10.52-.53,14.71-.79A104,104,0,0,0,50.9,17.25v3.81l.55-4,.73-.23a143.66,143.66,0,0,1,20.06-.44l22.21,3.15,1.5-.1,4.69.57c11.65-.26,16.51,0,24.23-.26V17.64l47.13-3v3.81c7.16,0,16.12-.27,30.14-.8,39.62,1,43.15-1.88,53.44-3.93l30.32,4.91V13.58L314,15.29l-1.09-.53c3.58-.53,6.56-.8,9.15-1.06.7,0,1.29-.27,1.89-.27h1.49a4.74,4.74,0,0,1,2.49,1.33c1.45,1.18,2.73,3.48,3.68,6.62a36,36,0,0,1,.9,5c0,.53.09.79.09,1.32v5c0,20.41-.29,50.62-.19,117.67l1-6.09c-1.09,45,.5,64.4.4,122.18.1,28.35-1.59,115.28-.4,165.11-1,101.77,2,151.07,1.79,238.53-.69,52.47,1,89.84-.69,99.92v-9.55l-1.6,19.62,1.2,2.38c-.4,31.54,0,76.86-1.3,103.89l2.09,73.15c-.2-18-.1-37.9.1-57.77l-.3,2.12c0-19.09-.29-65.47.2-87.46l.4,26.5c.3-30.48.8-5,1,3.44-.6,61,.59,44.26.79,90.91C336.93,947.93,336.73,967.81,336.43,960.39Z"/></g></g></svg>
