<svg xmlns="http://www.w3.org/2000/svg" preserveAspectRatio="none"  viewBox="0 0 1254 390"><defs><style>.cls-1{fill:#b2d567;}</style></defs><g id="Layer_2" data-name="Layer 2"><g id="Layer_1-2" data-name="Layer 1"><path class="cls-1" d="M1250.72,216.93c0-42.12-1-72-.11-112.43-2-6.62-1.75-26.26-1.42-48,.22-10.89.33-22.27.44-32.87V10.26a5.54,5.54,0,0,0-.22-1.27l-.11-.58-.22-.58c-1.31-3.21-4.81-5.65-8.75-6.81a22.54,22.54,0,0,0-6.23-.88h-2.41c-.77,0-1.42.1-2.19.1-30.29.29-46.7,1.36-23.62,1.75-41.89.1-31.17-1-66.17-.58l11.81-.88c-11.48-.19-24.28-.68-39.37-.48L1095.09,1C1084.48.68,1075,.68,1066,.68V1h0l-859.22.82V1c-26.34.1-48.28.88-82.34.49,29.76.68-13.67.49-10.36,1.26C107.14,2.39,79.58,2.29,89,2c-19.18-.2-37.81.09-54.34.29-4.08,0-8.16.1-12,.1H12.79c-.44,0-1,.09-1.44.09A15.92,15.92,0,0,0,2.42,6.67,7,7,0,0,0,.55,9.88a7.72,7.72,0,0,1-.22.77,1.72,1.72,0,0,0-.11.78c-.11.49-.11,1-.22,1.36l.55,9.39c.88,16-.22,28.7-.55,43.39l.77,2c.44,9.73.33,27.53-.33,36-.44,25.59,1.21,57.59,2.1,84.05-.78,26.26,1.32,14.88,1.87,38.52C4,241.25,5,267.32,4,276.56c-.11-20.91-2.21-23.83-1.77-46C1.54,239.06,1.43,193.24.44,213c1.76,42.41.11,95,1.87,134-.77-1.36-1.1,10.7-1.1,25.29v9l.11.78a8.45,8.45,0,0,0,.44,1.46,9.92,9.92,0,0,0,5.29,4.76,14.35,14.35,0,0,0,4.19,1.17,32.58,32.58,0,0,0,4.3.2c10.91-.1,20.61-.1,27.12-.2l1.65.39c22.27.2,38.8.29,74.18-.19,29.38-.1,58.53-.19,85.62,0v0h-1v0l306.8.34,555.1-2.27v-.58c10.69.19,21,.29,30.7.48,52.45,1,114.93-.49,137.3-1.47-61-1.15-118.42.59-164.83-1.13,38.32.42,42.71-.06,75.31-.73l-18.16-.5,14.73-.3c-7.53-.49,12-.89,9.75-1.38h-53.62c28.69.39,9.75,1,1.44,1.48l-27.59-.2c6.43.2,23.49.4,3.33.7h-8.64v.78h-.31L206.78,386.8v-.36c-9.48,0-20.17.09-29.54-.1l21.93-1.07c-33.72.78-59.08-1.17-92.8-.39l-10.26-1.07-31.74.1,3.64-.39-38.14-.1c-5.18,0-9.26.1-12.45.19a19.91,19.91,0,0,0-2.32.1H12.79a7.25,7.25,0,0,1-2.54-.58,2.56,2.56,0,0,1-.77-1.36v-3.31c0-2.53,0-4.86-.11-7,0-4.38,0-8,.22-10.12l1,12.16.33-11.29c-.33,7.69-.66-9.33-1-12.16.22-25.19.11-17.8.88-33.65C10.14,300.05,11.35,280,10,279c.77-29.86.77-61.57.77-90l-.88-12.35c.88-33.66-.22-48.93-.44-83.86l.33,2.73-1-18.92c.33-13.23.11-22.38-.22-32-.11-4.86-.22-9.82-.22-15.46,0-2.83,0-5.84.11-9.15,0-1.65.11-3.31.11-5.06a22.41,22.41,0,0,1,.11-2.72V11c0-.19.11-.38.11-.58a3.57,3.57,0,0,1,2.2-2,10.55,10.55,0,0,1,1.66-.49,14.21,14.21,0,0,1,2.53-.1h15.1c9.37-.09,17.42-.19,24.36-.29,14-.39,23.7-.87,31.75-1.46,24.13-.58,54.56.2,76.38.3l-14.22.38,18.08.49c18.82-.09,26.94,0,39.21-.09V8.17l3.85-2.56,155.62,2,349.21-2,202.37-.52,149.47,2.26V6.71h0c7.81,0,17.58-.1,32.75-.29,55.12.48,46.7-1.37,70.21-1.95l52.72,1.07-1.21-.19c3.94-.2,7.22-.3,10.06-.39.77,0,1.43-.1,2.08-.1h1.64a11.11,11.11,0,0,1,2.74.49,8.39,8.39,0,0,1,4,2.43,6.2,6.2,0,0,1,1,1.84c0,.2.11.3.11.49V12c0,7.49-.33,18.57-.22,43.18l1.09-2.24c-1.2,16.54.55,23.64.44,44.84.11,10.41-1.75,42.31-.44,60.59-1.09,37.35,2.19,55.44,2,87.53-.77,19.26,1.09,33-.77,36.67V279l-1.75,7.2,1.32.88c-.44,11.57,0,28.2-1.42,38.12l2.29,26.84c-.22-6.61-.11-13.9.11-21.2l-.33.78c0-7-.32-24,.22-32.09l.44,9.72c.33-11.18.87-1.85,1.09,1.27-.65,22.36.66,16.24.88,33.35-.11,3.9-.33,11.19-.66,8.47.11,5.05-.11,14.2-.11,22.17v5.74a6.75,6.75,0,0,1-1,2.82,8,8,0,0,1-2,2.14,15.18,15.18,0,0,1-4.48,2.43c-1.32.49-2.08.68-2.3.78a22.75,22.75,0,0,1-3.5.19,17.87,17.87,0,0,0,12.69-2.33,11.48,11.48,0,0,0,4-4.28,6.92,6.92,0,0,0,.55-1.36c.11-.2.11-.49.22-.78a1.48,1.48,0,0,0,.11-.68,19.77,19.77,0,0,1,.43-2.14c.22-1.46.55-2.92.88-4.57.55-3.21,1.09-6.62,1.64-10.21-.77-10.65-1.2-20.48-1.75-28.94C1254,287.53,1249.84,264.29,1250.72,216.93Z"/></g></g></svg>
