<?xml version="1.0" encoding="UTF-8"?>
<svg width="29px" height="24px" viewBox="0 0 29 24" version="1.1" xmlns="http://www.w3.org/2000/svg" xmlns:xlink="http://www.w3.org/1999/xlink">
    <!-- Generator: Sketch 64 (93537) - https://sketch.com -->
    <title>Cart</title>
    <desc>Created with Sketch.</desc>
    <g id="Navigation-and-Promo-Bar" stroke="none" stroke-width="1" fill="none" fill-rule="evenodd">
        <g transform="translate(-1060.000000, -649.000000)" fill="#4D4D4D" fill-rule="nonzero" id="Group">
            <g transform="translate(56.000000, 563.000000)">
                <g id="Nav" transform="translate(0.000000, 40.000000)">
                    <g id="Cart" transform="translate(1004.000000, 46.000000)">
                        <path d="M28.6122571,4.73966796 C28.3970649,4.45692571 28.0619747,4.29115672 27.7066571,4.29166796 L7.48585709,4.29166796 L6.59625709,1.03086796 C6.46599823,0.554667039 6.04308603,0.217113268 5.54985709,0.195667962 L1.18825709,0.00366796214 C0.883632001,-0.0212871641 0.582397554,0.0819077554 0.357064461,0.288412477 C0.131731368,0.494917198 0.00270991142,0.78602688 0.00105708925,1.09166796 C-0.0119458093,1.39302492 0.0954375745,1.68718078 0.299533034,1.90928466 C0.503628494,2.13138854 0.787677397,2.26320311 1.08905709,2.27566796 L4.60905709,2.42926796 L5.46665709,5.56206796 C5.47116142,5.61702397 5.47971803,5.67157231 5.49225709,5.72526796 L8.28585709,15.853268 L8.40425709,16.278868 C8.45155818,16.4465 8.5369836,16.6009228 8.65385709,16.730068 L8.67945709,16.762068 C8.70505709,16.787668 8.73065709,16.810068 8.75945709,16.832468 L8.82345709,16.899668 L8.88745709,16.941268 C8.91625709,16.960468 8.94505709,16.979668 8.97705709,16.998868 L9.03465709,17.024468 C9.07005073,17.0423779 9.10636828,17.0584004 9.14345709,17.072468 L9.22985709,17.094868 L9.31945709,17.117268 C9.38121902,17.1223591 9.44329516,17.1223591 9.50505709,17.117268 L24.7946571,17.117268 C25.3070038,17.1182364 25.7565941,16.7761283 25.8922571,16.282068 L28.8042571,5.72206796 C28.8952593,5.38251743 28.8244034,5.01997124 28.6122571,4.73966796 Z M23.9274571,14.842068 L10.3786571,14.842068 L8.10985709,6.56046796 L26.2122571,6.56046796 L23.9274571,14.842068 Z" id="Shape"></path>
                        <path d="M12.2250571,17.6292614 C10.4996536,17.6345661 9.10473428,19.0366403 9.10825695,20.7620483 C9.11179298,22.4874563 10.5124366,23.8838122 12.2378473,23.8820533 C13.9632579,23.880291 15.3610571,22.4810795 15.3610571,20.755668 C15.3602096,19.925091 15.0292317,19.1289162 14.4410251,18.5425103 C13.8528186,17.9561044 13.0556327,17.627569 12.2250571,17.6292614 Z M12.2250571,21.610068 C11.753185,21.610068 11.3706571,21.2275401 11.3706571,20.755668 C11.3706571,20.2837959 11.753185,19.901268 12.2250571,19.901268 C12.6969292,19.901268 13.0794571,20.2837959 13.0794571,20.755668 C13.0794571,20.9822689 12.9894402,21.1995889 12.8292091,21.35982 C12.668978,21.5200511 12.4516581,21.610068 12.2250571,21.610068 Z" id="Shape"></path>
                        <path d="M21.7034571,17.629268 C20.4389463,17.629268 19.2989474,18.3909909 18.8150401,19.5592465 C18.3311328,20.7275021 18.5986143,22.0722225 19.4927584,22.9663666 C20.3869026,23.8605107 21.731623,24.1279923 22.8998786,23.6440849 C24.0681342,23.1601776 24.8298571,22.0201787 24.8298571,20.755668 C24.8280932,19.0297361 23.429389,17.6310318 21.7034571,17.629268 L21.7034571,17.629268 Z M21.7034571,21.610068 C21.231585,21.610068 20.8490571,21.2275401 20.8490571,20.755668 C20.8490571,20.2837959 21.231585,19.901268 21.7034571,19.901268 C22.1753292,19.901268 22.5578571,20.2837959 22.5578571,20.755668 C22.5578571,21.2275401 22.1753292,21.610068 21.7034571,21.610068 Z" id="Shape"></path>
                    </g>
                </g>
            </g>
        </g>
    </g>
</svg>