<svg xmlns="http://www.w3.org/2000/svg" viewBox="0 0 160 160.1"><defs><style>.cls-1{fill:#f0576b;}</style></defs><title>dottyborder</title><g id="Layer_2" data-name="Layer 2"><g id="Layer_1-2" data-name="Layer 1"><path class="cls-1" d="M40.4,10.9a1.56,1.56,0,0,1,.8.6,1.47,1.47,0,0,1,.2,1.1,2.17,2.17,0,0,1-.8.9,2.61,2.61,0,0,1-1.1.3,1.56,1.56,0,0,1-.8-.6,1.3,1.3,0,0,1-.2-1,2.17,2.17,0,0,1,.8-.9A1,1,0,0,1,40.4,10.9Z"/><path class="cls-1" d="M46.5,7.7a1.34,1.34,0,0,1,.8.7,1.42,1.42,0,0,1,.1,1.1,1.46,1.46,0,0,1-.9.8,1.72,1.72,0,0,1-1.2.2,1.34,1.34,0,0,1-.8-.7,1.42,1.42,0,0,1-.1-1.1,1.55,1.55,0,0,1,.8-.8A2.09,2.09,0,0,1,46.5,7.7Z"/><path class="cls-1" d="M52.8,5.1a1.14,1.14,0,0,1,.7.8,2,2,0,0,1,0,1.1,1.6,1.6,0,0,1-.9.7,2.46,2.46,0,0,1-1.2.1,1.14,1.14,0,0,1-.7-.8,2.05,2.05,0,0,1,0-1.1,1.6,1.6,0,0,1,.9-.7A1.73,1.73,0,0,1,52.8,5.1Z"/><path class="cls-1" d="M59.3,3.1a1.85,1.85,0,0,1,.7.8A1.38,1.38,0,0,1,59.9,5a1.44,1.44,0,0,1-1,.6,2.43,2.43,0,0,1-1.2,0c-.4-.1-.5-.4-.7-.8a1.31,1.31,0,0,1,.2-1.1,1.44,1.44,0,0,1,1-.6A1.08,1.08,0,0,1,59.3,3.1Z"/><path class="cls-1" d="M66,1.6a1.46,1.46,0,0,1,.6.9,1.09,1.09,0,0,1-.2,1,1.7,1.7,0,0,1-1,.6A2.25,2.25,0,0,1,64.2,4a1.46,1.46,0,0,1-.6-.9,1.09,1.09,0,0,1,.2-1,1.7,1.7,0,0,1,1-.6A1.23,1.23,0,0,1,66,1.6Z"/><path class="cls-1" d="M72.8.7a1.05,1.05,0,0,1,.5.9,1.49,1.49,0,0,1-.3,1,1.63,1.63,0,0,1-1.1.5c-.5,0-.9,0-1.1-.2a1.35,1.35,0,0,1-.5-.9,1.49,1.49,0,0,1,.3-1A1.63,1.63,0,0,1,71.7.5,1.09,1.09,0,0,1,72.8.7Z"/><path class="cls-1" d="M79.6.3a1.16,1.16,0,0,1,.4,1,1.16,1.16,0,0,1-.4,1,1.82,1.82,0,0,1-1.1.4,1.61,1.61,0,0,1-1.1-.3,1.16,1.16,0,0,1-.4-1,1.28,1.28,0,0,1,.4-1A1.37,1.37,0,0,1,78.5,0,1.61,1.61,0,0,1,79.6.3Z"/><path class="cls-1" d="M86.5.6a1.21,1.21,0,0,1,.3,1,1.39,1.39,0,0,1-.5,1,2,2,0,0,1-1.1.3,1.82,1.82,0,0,1-1.1-.4,1,1,0,0,1-.3-1,1.39,1.39,0,0,1,.5-1A2,2,0,0,1,85.4.2,1.37,1.37,0,0,1,86.5.6Z"/><path class="cls-1" d="M93.3,1.4a1.16,1.16,0,0,1,.2,1,1.35,1.35,0,0,1-.5.9,1.55,1.55,0,0,1-1.2.2c-.5-.1-.8-.2-1-.5a1.16,1.16,0,0,1-.2-1,1.35,1.35,0,0,1,.5-.9A1.55,1.55,0,0,1,92.3.9,3.13,3.13,0,0,1,93.3,1.4Z"/><path class="cls-1" d="M100,2.8a1.31,1.31,0,0,1,.2,1.1,1.46,1.46,0,0,1-.6.9,1.57,1.57,0,0,1-1.2.1,1.44,1.44,0,0,1-1-.6,1.31,1.31,0,0,1-.2-1.1,1.46,1.46,0,0,1,.6-.9A1.57,1.57,0,0,1,99,2.2,4.37,4.37,0,0,1,100,2.8Z"/><path class="cls-1" d="M106.5,4.8a1.38,1.38,0,0,1,.1,1.1,1.14,1.14,0,0,1-.7.8,2.4,2.4,0,0,1-1.2,0c-.5-.2-.8-.4-.9-.7a1.38,1.38,0,0,1-.1-1.1,1.14,1.14,0,0,1,.7-.8,2.4,2.4,0,0,1,1.2,0A2.18,2.18,0,0,1,106.5,4.8Z"/><path class="cls-1" d="M112.9,7.4a2,2,0,0,1,0,1.1,1,1,0,0,1-.8.7,1.73,1.73,0,0,1-1.2-.1,1.76,1.76,0,0,1-.9-.8,1.39,1.39,0,0,1,0-1.1,1.12,1.12,0,0,1,.8-.7,1.73,1.73,0,0,1,1.2.1A2.36,2.36,0,0,1,112.9,7.4Z"/><path class="cls-1" d="M119,10.5a1.45,1.45,0,0,1-.1,1.1,1.34,1.34,0,0,1-.8.7,1.54,1.54,0,0,1-1.1-.2,1.55,1.55,0,0,1-.8-.8,1.45,1.45,0,0,1,.1-1.1,1.34,1.34,0,0,1,.8-.7,1.88,1.88,0,0,1,1.2.2A1.78,1.78,0,0,1,119,10.5Z"/><path class="cls-1" d="M124.8,14.1a1.23,1.23,0,0,1-.2,1,1,1,0,0,1-.9.6,2.28,2.28,0,0,1-1.1-.3,1.85,1.85,0,0,1-.7-.9,1.23,1.23,0,0,1,.2-1,1.46,1.46,0,0,1,.9-.6c.4-.1.7.1,1.1.3A1.85,1.85,0,0,1,124.8,14.1Z"/><path class="cls-1" d="M130.3,18.2a1,1,0,0,1-.3,1,1.38,1.38,0,0,1-.9.5,1.67,1.67,0,0,1-1.1-.4,1.69,1.69,0,0,1-.7-1,1,1,0,0,1,.3-1,1.38,1.38,0,0,1,.9-.5,1.67,1.67,0,0,1,1.1.4A1.69,1.69,0,0,1,130.3,18.2Z"/><path class="cls-1" d="M135.4,22.7a1.28,1.28,0,0,1-.4,1,1,1,0,0,1-1,.4,1.82,1.82,0,0,1-1.1-.5,2.66,2.66,0,0,1-.6-1,1.37,1.37,0,0,1,1.4-1.4,1.82,1.82,0,0,1,1.1.5A1.37,1.37,0,0,1,135.4,22.7Z"/><path class="cls-1" d="M140.2,27.7a1.39,1.39,0,0,1-.5,1,1.28,1.28,0,0,1-1,.4,1.22,1.22,0,0,1-1-.6,1.82,1.82,0,0,1-.5-1.1,1.39,1.39,0,0,1,.5-1,1.28,1.28,0,0,1,1-.4,1.22,1.22,0,0,1,1,.6A2.11,2.11,0,0,1,140.2,27.7Z"/><path class="cls-1" d="M144.4,33.1a1.05,1.05,0,0,1-.5.9,1.31,1.31,0,0,1-1,.3,2,2,0,0,1-1-.7,1.67,1.67,0,0,1-.4-1.1,1.05,1.05,0,0,1,.5-.9,1.93,1.93,0,0,1,1-.3,1.69,1.69,0,0,1,1,.7A1.19,1.19,0,0,1,144.4,33.1Z"/><path class="cls-1" d="M148.2,38.8a2.36,2.36,0,0,1-.6.9,1.3,1.3,0,0,1-1,.2,2.17,2.17,0,0,1-.9-.8,1.25,1.25,0,0,1-.3-1.1,2.36,2.36,0,0,1,.6-.9,1.3,1.3,0,0,1,1-.2,2.17,2.17,0,0,1,.9.8A1.19,1.19,0,0,1,148.2,38.8Z"/><path class="cls-1" d="M151.5,44.8a1.34,1.34,0,0,1-.7.8,1.42,1.42,0,0,1-1.1.1,1.55,1.55,0,0,1-.8-.8,1.72,1.72,0,0,1-.2-1.2,1.34,1.34,0,0,1,.7-.8,1.42,1.42,0,0,1,1.1-.1,1.55,1.55,0,0,1,.8.8A1.72,1.72,0,0,1,151.5,44.8Z"/><path class="cls-1" d="M154.3,51a1.14,1.14,0,0,1-.8.7,1.08,1.08,0,0,1-1.1,0,1.6,1.6,0,0,1-.7-.9,1.67,1.67,0,0,1-.1-1.2,1,1,0,0,1,.8-.7,1.08,1.08,0,0,1,1.1,0,2.36,2.36,0,0,1,.8.9A2.4,2.4,0,0,1,154.3,51Z"/><path class="cls-1" d="M156.5,57.5c-.1.3-.4.5-.8.7a1.38,1.38,0,0,1-1.1-.1,2,2,0,0,1-.7-1,2.43,2.43,0,0,1,0-1.2c.1-.3.4-.5.8-.7a1.42,1.42,0,0,1,1.1.1,2,2,0,0,1,.7,1A1.26,1.26,0,0,1,156.5,57.5Z"/><path class="cls-1" d="M158.1,64.2a1.46,1.46,0,0,1-.9.6,1.09,1.09,0,0,1-1-.2,1.44,1.44,0,0,1-.6-1,1.57,1.57,0,0,1,.1-1.2,1.46,1.46,0,0,1,.9-.6,1.09,1.09,0,0,1,1,.2,1.44,1.44,0,0,1,.6,1A1.23,1.23,0,0,1,158.1,64.2Z"/><path class="cls-1" d="M159.2,70.9a1.05,1.05,0,0,1-.9.5.91.91,0,0,1-1-.3,1.63,1.63,0,0,1-.5-1.1,1.55,1.55,0,0,1,.2-1.2,1.05,1.05,0,0,1,.9-.5.91.91,0,0,1,1,.3,1.63,1.63,0,0,1,.5,1.1A1.46,1.46,0,0,1,159.2,70.9Z"/><path class="cls-1" d="M159.7,77.8a1.05,1.05,0,0,1-1,.4,1.16,1.16,0,0,1-1-.4,1.82,1.82,0,0,1-.4-1.1,1.61,1.61,0,0,1,.3-1.1,1.05,1.05,0,0,1,1-.4,1.28,1.28,0,0,1,1,.4,1.82,1.82,0,0,1,.4,1.1A2,2,0,0,1,159.7,77.8Z"/><path class="cls-1" d="M159.6,84.6a1.16,1.16,0,0,1-1,.4,1.78,1.78,0,0,1-1-.4,2,2,0,0,1-.3-1.1,1.82,1.82,0,0,1,.4-1.1,1.16,1.16,0,0,1,1-.4,1.78,1.78,0,0,1,1,.4,2,2,0,0,1,.3,1.1A1.6,1.6,0,0,1,159.6,84.6Z"/><path class="cls-1" d="M158.9,91.4a1.69,1.69,0,0,1-1,.3,1.35,1.35,0,0,1-.9-.5,1.55,1.55,0,0,1-.2-1.2,1.88,1.88,0,0,1,.5-1.1,1.69,1.69,0,0,1,1-.3,1.35,1.35,0,0,1,.9.5,1.55,1.55,0,0,1,.2,1.2C159.3,90.9,159.2,91.2,158.9,91.4Z"/><path class="cls-1" d="M157.6,98.2a1.16,1.16,0,0,1-1,.2,1.46,1.46,0,0,1-.9-.6,1.57,1.57,0,0,1-.1-1.2,1.44,1.44,0,0,1,.6-1,1.16,1.16,0,0,1,1-.2,1.46,1.46,0,0,1,.9.6,1.57,1.57,0,0,1,.1,1.2A1.7,1.7,0,0,1,157.6,98.2Z"/><path class="cls-1" d="M155.8,104.8a1.38,1.38,0,0,1-1.1.1,1.14,1.14,0,0,1-.8-.7,2.4,2.4,0,0,1,0-1.2,1.53,1.53,0,0,1,.7-1,1.38,1.38,0,0,1,1.1-.1,1,1,0,0,1,.8.7,1.63,1.63,0,0,1,0,1.2A2,2,0,0,1,155.8,104.8Z"/><path class="cls-1" d="M153.4,111.2a1.08,1.08,0,0,1-1.1,0,1.85,1.85,0,0,1-.8-.7,1.73,1.73,0,0,1,.1-1.2,2.18,2.18,0,0,1,.7-.9,1.08,1.08,0,0,1,1.1,0,1.85,1.85,0,0,1,.8.7,1.73,1.73,0,0,1-.1,1.2A1.6,1.6,0,0,1,153.4,111.2Z"/><path class="cls-1" d="M150.4,117.4a1.45,1.45,0,0,1-1.1-.1,1.34,1.34,0,0,1-.7-.8,1.88,1.88,0,0,1,.2-1.2,1.55,1.55,0,0,1,.8-.8,1.45,1.45,0,0,1,1.1.1,1.34,1.34,0,0,1,.7.8,1.88,1.88,0,0,1-.2,1.2C151.1,117,150.8,117.2,150.4,117.4Z"/><path class="cls-1" d="M147,123.3a1.23,1.23,0,0,1-1-.2,1,1,0,0,1-.6-.9,1.25,1.25,0,0,1,.3-1.1,2.17,2.17,0,0,1,.9-.8,1.23,1.23,0,0,1,1,.2,1,1,0,0,1,.6.9,1.19,1.19,0,0,1-.3,1.1A2.17,2.17,0,0,1,147,123.3Z"/><path class="cls-1" d="M143,128.9a1,1,0,0,1-1-.3,1.38,1.38,0,0,1-.5-.9,1.67,1.67,0,0,1,.4-1.1,1.69,1.69,0,0,1,1-.7,1,1,0,0,1,1,.3,1.19,1.19,0,0,1,.5.9,1.67,1.67,0,0,1-.4,1.1A1.69,1.69,0,0,1,143,128.9Z"/><path class="cls-1" d="M138.6,134.1a1.28,1.28,0,0,1-1-.4,1.39,1.39,0,0,1-.5-1,1.82,1.82,0,0,1,.5-1.1,1.37,1.37,0,0,1,1-.6,1.28,1.28,0,0,1,1,.4,1.39,1.39,0,0,1,.5,1,1.82,1.82,0,0,1-.5,1.1A1.79,1.79,0,0,1,138.6,134.1Z"/><path class="cls-1" d="M133.7,138.9a1.37,1.37,0,0,1-1.4-1.4,1.22,1.22,0,0,1,.6-1,1.61,1.61,0,0,1,1.1-.5,1.37,1.37,0,0,1,1.4,1.4,1.22,1.22,0,0,1-.6,1A1.82,1.82,0,0,1,133.7,138.9Z"/><path class="cls-1" d="M128.5,143.3a1.05,1.05,0,0,1-.9-.5,1,1,0,0,1-.3-1,2,2,0,0,1,.7-1,1.67,1.67,0,0,1,1.1-.4,1.05,1.05,0,0,1,.9.5,1,1,0,0,1,.3,1,1.69,1.69,0,0,1-.7,1A1.86,1.86,0,0,1,128.5,143.3Z"/><path class="cls-1" d="M122.8,147.2c-.4,0-.6-.3-.9-.6a1.3,1.3,0,0,1-.2-1,1.85,1.85,0,0,1,.7-.9,1.25,1.25,0,0,1,1.1-.3c.4,0,.6.3.9.6a1.23,1.23,0,0,1,.2,1,1.85,1.85,0,0,1-.7.9A1.13,1.13,0,0,1,122.8,147.2Z"/><path class="cls-1" d="M116.9,150.7a1.34,1.34,0,0,1-.8-.7,1.42,1.42,0,0,1-.1-1.1,1.89,1.89,0,0,1,1.9-1,1.34,1.34,0,0,1,.8.7,1.42,1.42,0,0,1,.1,1.1,1.55,1.55,0,0,1-.8.8A1.39,1.39,0,0,1,116.9,150.7Z"/><path class="cls-1" d="M110.7,153.6a1.78,1.78,0,0,1-.8-.7,1.08,1.08,0,0,1,0-1.1,1.8,1.8,0,0,1,.9-.8,1.67,1.67,0,0,1,1.2-.1,1.78,1.78,0,0,1,.8.7,1.08,1.08,0,0,1,0,1.1,1.46,1.46,0,0,1-.9.8A1.67,1.67,0,0,1,110.7,153.6Z"/><path class="cls-1" d="M104.3,156a1.14,1.14,0,0,1-.7-.8,1.38,1.38,0,0,1,.1-1.1,2.18,2.18,0,0,1,.9-.7,1.27,1.27,0,0,1,1.2,0,1.14,1.14,0,0,1,.7.8,1.42,1.42,0,0,1-.1,1.1,2.18,2.18,0,0,1-.9.7A2.4,2.4,0,0,1,104.3,156Z"/><path class="cls-1" d="M97.7,157.7a1.46,1.46,0,0,1-.6-.9,1.39,1.39,0,0,1,.2-1.1,1.44,1.44,0,0,1,1-.6,1.57,1.57,0,0,1,1.2.1,1.46,1.46,0,0,1,.6.9,1.09,1.09,0,0,1-.2,1,1.44,1.44,0,0,1-1,.6A1.26,1.26,0,0,1,97.7,157.7Z"/><path class="cls-1" d="M90.9,159a1.05,1.05,0,0,1-.5-.9,1.09,1.09,0,0,1,.2-1,1.63,1.63,0,0,1,1.1-.5,1.55,1.55,0,0,1,1.2.2,1.05,1.05,0,0,1,.5.9,1.09,1.09,0,0,1-.2,1,1.23,1.23,0,0,1-1,.5A2.36,2.36,0,0,1,90.9,159Z"/><path class="cls-1" d="M84.1,159.6c-.3-.2-.4-.5-.5-1a1.49,1.49,0,0,1,.3-1,1.37,1.37,0,0,1,1.1-.4,1.61,1.61,0,0,1,1.1.3c.3.2.4.5.5,1a1.69,1.69,0,0,1-.3,1,1.25,1.25,0,0,1-1.1.4A2,2,0,0,1,84.1,159.6Z"/><path class="cls-1" d="M77.3,159.7a1.16,1.16,0,0,1-.4-1,1.28,1.28,0,0,1,.4-1,1.8,1.8,0,0,1,1.1-.3,1.37,1.37,0,0,1,1.1.4,1.16,1.16,0,0,1,.4,1,1.28,1.28,0,0,1-.4,1,1.8,1.8,0,0,1-1.1.3A2.3,2.3,0,0,1,77.3,159.7Z"/><path class="cls-1" d="M70.4,159.1a1.69,1.69,0,0,1-.3-1,1.05,1.05,0,0,1,.5-.9,1.39,1.39,0,0,1,1.1-.2,1.88,1.88,0,0,1,1.1.5,1.69,1.69,0,0,1,.3,1,1.05,1.05,0,0,1-.5.9,1.39,1.39,0,0,1-1.1.2A1.43,1.43,0,0,1,70.4,159.1Z"/><path class="cls-1" d="M63.7,158a1.16,1.16,0,0,1-.2-1,1.46,1.46,0,0,1,.6-.9,1.57,1.57,0,0,1,1.2-.1,1.44,1.44,0,0,1,1,.6,1.16,1.16,0,0,1,.2,1,1.46,1.46,0,0,1-.6.9,1.57,1.57,0,0,1-1.2.1A1.44,1.44,0,0,1,63.7,158Z"/><path class="cls-1" d="M57,156.3a1.38,1.38,0,0,1-.1-1.1,1,1,0,0,1,.7-.8,1.26,1.26,0,0,1,1.2,0,1.44,1.44,0,0,1,1,.6,1.38,1.38,0,0,1,.1,1.1,1,1,0,0,1-.7.8,1.26,1.26,0,0,1-1.2,0A1.33,1.33,0,0,1,57,156.3Z"/><path class="cls-1" d="M50.6,154.1a1.08,1.08,0,0,1,0-1.1c.2-.4.4-.7.7-.8a1.73,1.73,0,0,1,1.2.1c.4.2.8.4.9.7a1.08,1.08,0,0,1,0,1.1,1.39,1.39,0,0,1-.7.8,1.73,1.73,0,0,1-1.2-.1C51,154.6,50.7,154.4,50.6,154.1Z"/><path class="cls-1" d="M44.3,151.3a1.45,1.45,0,0,1,.1-1.1,1.12,1.12,0,0,1,.8-.7,1.88,1.88,0,0,1,1.2.2,2.36,2.36,0,0,1,.9.8,1.45,1.45,0,0,1-.1,1.1,1.12,1.12,0,0,1-.8.7,1.88,1.88,0,0,1-1.2-.2A1.8,1.8,0,0,1,44.3,151.3Z"/><path class="cls-1" d="M38.3,147.9a1.17,1.17,0,0,1,.2-1.1.94.94,0,0,1,.8-.6,1.25,1.25,0,0,1,1.1.3,1.42,1.42,0,0,1,.8.9,1.17,1.17,0,0,1-.2,1.1.94.94,0,0,1-.8.6,1.19,1.19,0,0,1-1.1-.3A1.42,1.42,0,0,1,38.3,147.9Z"/><path class="cls-1" d="M32.7,144.1a1,1,0,0,1,.3-1,1.46,1.46,0,0,1,.9-.6,1.67,1.67,0,0,1,1.1.4,1.85,1.85,0,0,1,.7.9,1,1,0,0,1-.3,1,1.46,1.46,0,0,1-.9.6,1.67,1.67,0,0,1-1.1-.4C33,144.7,32.7,144.5,32.7,144.1Z"/><path class="cls-1" d="M27.3,139.8a1.69,1.69,0,0,1,.3-1,1.24,1.24,0,0,1,2,0,1.22,1.22,0,0,1,.6,1,1.69,1.69,0,0,1-.3,1,1.38,1.38,0,0,1-.9.5,1.53,1.53,0,0,1-1.1-.5A2.07,2.07,0,0,1,27.3,139.8Z"/><path class="cls-1" d="M22.4,135.1a1.37,1.37,0,0,1,1.4-1.4,1.39,1.39,0,0,1,1,.5,1.59,1.59,0,0,1,.5,1,1.37,1.37,0,0,1-1.4,1.4,1.39,1.39,0,0,1-1-.5A1.59,1.59,0,0,1,22.4,135.1Z"/><path class="cls-1" d="M17.9,129.9a1.05,1.05,0,0,1,.5-.9,1,1,0,0,1,1-.3,2.07,2.07,0,0,1,1,.6c.3.4.5.7.4,1.1a1.05,1.05,0,0,1-.5.9,1,1,0,0,1-1,.3,2.07,2.07,0,0,1-1-.6A1.67,1.67,0,0,1,17.9,129.9Z"/><path class="cls-1" d="M13.8,124.4c0-.4.2-.6.6-.9a1.23,1.23,0,0,1,1-.2,1.5,1.5,0,0,1,.9.7,1.25,1.25,0,0,1,.3,1.1c0,.4-.2.6-.6.9a1.23,1.23,0,0,1-1,.2,1.5,1.5,0,0,1-.9-.7A2.61,2.61,0,0,1,13.8,124.4Z"/><path class="cls-1" d="M10.3,118.5a1.34,1.34,0,0,1,.7-.8,1.1,1.1,0,0,1,1.1-.1,2.17,2.17,0,0,1,.9.8,1.54,1.54,0,0,1,.2,1.1,1.34,1.34,0,0,1-.7.8c-.4.2-.7.3-1,.1a2.17,2.17,0,0,1-.9-.8A1.13,1.13,0,0,1,10.3,118.5Z"/><path class="cls-1" d="M7.2,112.4a1.34,1.34,0,0,1,.7-.8,1.42,1.42,0,0,1,1.1-.1,1.46,1.46,0,0,1,.8.9,1.29,1.29,0,0,1,.1,1.2,1.34,1.34,0,0,1-.7.8,1.08,1.08,0,0,1-1.1,0,1.46,1.46,0,0,1-.8-.9A1.45,1.45,0,0,1,7.2,112.4Z"/><path class="cls-1" d="M4.7,106a1.14,1.14,0,0,1,.8-.7,2,2,0,0,1,1.1,0,2.18,2.18,0,0,1,.7.9,1.27,1.27,0,0,1,0,1.2,1.14,1.14,0,0,1-.8.7,2.05,2.05,0,0,1-1.1,0,1.6,1.6,0,0,1-.7-.9A2.44,2.44,0,0,1,4.7,106Z"/><path class="cls-1" d="M2.7,99.5a1.22,1.22,0,0,1,.9-.6.9.9,0,0,1,1,.1,1.44,1.44,0,0,1,.6,1,1.57,1.57,0,0,1-.1,1.2,1.22,1.22,0,0,1-.9.6,1.1,1.1,0,0,1-1-.1,1.44,1.44,0,0,1-.6-1A4.12,4.12,0,0,1,2.7,99.5Z"/><path class="cls-1" d="M1.4,92.8a1.46,1.46,0,0,1,.9-.6,1.09,1.09,0,0,1,1,.2,1.23,1.23,0,0,1,.5,1,1.55,1.55,0,0,1-.2,1.2,1.46,1.46,0,0,1-.9.6,1.09,1.09,0,0,1-1-.2,1.6,1.6,0,0,1-.5-1A1.46,1.46,0,0,1,1.4,92.8Z"/><path class="cls-1" d="M.6,85.9a1.35,1.35,0,0,1,.9-.5,1.49,1.49,0,0,1,1,.3,1.6,1.6,0,0,1,.4,1.1c0,.5,0,.9-.3,1.1a1.35,1.35,0,0,1-.9.5,1.49,1.49,0,0,1-1-.3A2.26,2.26,0,0,1,.2,87,3.58,3.58,0,0,1,.6,85.9Z"/><path class="cls-1" d="M.3,79.2a1.16,1.16,0,0,1,1-.4,1.16,1.16,0,0,1,1,.4,1.82,1.82,0,0,1,.4,1.1,1.61,1.61,0,0,1-.3,1.1,1.16,1.16,0,0,1-1,.4,1.28,1.28,0,0,1-1-.4A1.37,1.37,0,0,1,0,80.3,1.61,1.61,0,0,1,.3,79.2Z"/><path class="cls-1" d="M.7,72.3a1.21,1.21,0,0,1,1-.3,1.39,1.39,0,0,1,1,.5A2,2,0,0,1,3,73.6a1.82,1.82,0,0,1-.4,1.1,1.21,1.21,0,0,1-1,.3,1.05,1.05,0,0,1-.9-.5,2,2,0,0,1-.3-1.1A1.23,1.23,0,0,1,.7,72.3Z"/><path class="cls-1" d="M1.7,65.5a1.16,1.16,0,0,1,1-.2,1.46,1.46,0,0,1,.9.6,2.17,2.17,0,0,1,.2,1.2,1.87,1.87,0,0,1-.5,1,1.16,1.16,0,0,1-1,.2,1.46,1.46,0,0,1-.9-.6,2.13,2.13,0,0,1-.3-1.2A1.44,1.44,0,0,1,1.7,65.5Z"/><path class="cls-1" d="M3.2,58.8a1.33,1.33,0,0,1,1.1-.1,1,1,0,0,1,.8.6,1.57,1.57,0,0,1,.1,1.2,1.44,1.44,0,0,1-.6,1,1.33,1.33,0,0,1-1.1.1,1,1,0,0,1-.8-.6,1.57,1.57,0,0,1-.1-1.2A1.44,1.44,0,0,1,3.2,58.8Z"/><path class="cls-1" d="M5.3,52.3a1.08,1.08,0,0,1,1.1,0,1.14,1.14,0,0,1,.8.7,2.4,2.4,0,0,1,0,1.2,1.55,1.55,0,0,1-.8.8,1.08,1.08,0,0,1-1.1,0,.86.86,0,0,1-.7-.6,2.4,2.4,0,0,1,0-1.2A2.18,2.18,0,0,1,5.3,52.3Z"/><path class="cls-1" d="M8,46a2,2,0,0,1,1.1,0,1.12,1.12,0,0,1,.7.8A1.73,1.73,0,0,1,9.7,48a2.36,2.36,0,0,1-.8.9,2,2,0,0,1-1.1,0A3.24,3.24,0,0,1,7,48a1.73,1.73,0,0,1,.1-1.2C7.4,46.4,7.6,46.1,8,46Z"/><path class="cls-1" d="M11.2,39.9a1.45,1.45,0,0,1,1.1.1,1.34,1.34,0,0,1,.7.8,1.54,1.54,0,0,1-.2,1.1,1.42,1.42,0,0,1-.9.8,1.45,1.45,0,0,1-1.1-.1,1.34,1.34,0,0,1-.7-.8,1.54,1.54,0,0,1,.2-1.1A1.42,1.42,0,0,1,11.2,39.9Z"/><path class="cls-1" d="M14.9,34.1a1.23,1.23,0,0,1,1,.2,1.46,1.46,0,0,1,.6.9,2.28,2.28,0,0,1-.3,1.1,1.85,1.85,0,0,1-.9.7,1.23,1.23,0,0,1-1-.2,1.46,1.46,0,0,1-.6-.9,2.28,2.28,0,0,1,.3-1.1A1.6,1.6,0,0,1,14.9,34.1Z"/><path class="cls-1" d="M19.1,28.7a1,1,0,0,1,1,.3,1.38,1.38,0,0,1,.5.9,1.67,1.67,0,0,1-.4,1.1,1.22,1.22,0,0,1-1,.6,1,1,0,0,1-1-.3,1.38,1.38,0,0,1-.5-.9,1.67,1.67,0,0,1,.4-1.1A1.52,1.52,0,0,1,19.1,28.7Z"/><path class="cls-1" d="M23.7,23.7a1.37,1.37,0,0,1,1.4,1.4,1.39,1.39,0,0,1-.5,1,2.66,2.66,0,0,1-1,.6,1.37,1.37,0,0,1-1.4-1.4,1.39,1.39,0,0,1,.5-1A1.22,1.22,0,0,1,23.7,23.7Z"/><path class="cls-1" d="M28.7,19a1.05,1.05,0,0,1,.9.5,1,1,0,0,1,.3,1,1.52,1.52,0,0,1-.6,1,1.39,1.39,0,0,1-1,.5,1.05,1.05,0,0,1-.9-.5,1,1,0,0,1-.3-1,1.22,1.22,0,0,1,.6-1A1.59,1.59,0,0,1,28.7,19Z"/><path class="cls-1" d="M34.1,14.9a1,1,0,0,1,.9.6,2.24,2.24,0,0,1,.3,1,1.5,1.5,0,0,1-.7.9,1.86,1.86,0,0,1-1.1.4,1,1,0,0,1-.9-.6,1.93,1.93,0,0,1-.3-1,1.5,1.5,0,0,1,.7-.9A1.37,1.37,0,0,1,34.1,14.9Z"/></g></g></svg>