<svg id="mobile_greenborder" xmlns="http://www.w3.org/2000/svg" width="100%" height="100%" viewBox="0 0 343 508">
  <path id="Path" d="M51.516,434.488c.484-59.707-.666-90-.424-151.74,0-54.89-.272-93.807-.03-146.542-.545-8.62-.484-34.227-.393-62.623.06-14.2.091-29.03.121-42.847V13.369c-.005-.557-.026-1.11-.061-1.648l-.03-.761-.061-.761c-.363-4.183-1.331-7.352-2.42-8.874A2.27,2.27,0,0,0,46.494.186h-.666c-.212,0-.393.127-.605.127-8.379.38-12.917,1.775-6.534,2.282-11.586.127-8.621-1.268-18.3-.761L23.656.693C20.479.439,16.94-.195,12.766.059l-4.719,1.2A60.3,60.3,0,0,0,0,.883v7.86c2.178,0,4.9-.127,9.166-.38C24.412,9,22.083,6.587,28.586,5.827L43.167,7.221l-.333-.254c1.089-.254,2-.38,2.783-.507.212,0,.393-.127.575-.127h.454a1.409,1.409,0,0,1,.756.634,8.1,8.1,0,0,1,1.119,3.169c.121.737.213,1.55.272,2.409,0,.254.03.38.03.634v2.409c0,9.761-.091,24.212-.061,56.284l.3-2.916c-.333,21.55.151,30.8.121,58.439.03,13.564-.484,55.143-.121,78.976-.3,48.678.605,72.257.545,114.09-.212,25.1.3,42.974-.212,47.791v-4.564l-.484,9.381.363,1.141c-.121,15.085,0,36.762-.393,49.692l.635,34.988c-.061-8.62-.03-18.128.03-27.635l-.091,1.014c0-9.127-.091-31.311.061-41.833l.121,12.677c.091-14.578.242-2.409.3,1.648-.181,29.156.182,21.17.242,43.481-.03,5.071-.091,14.578-.181,11.029.03,6.592-.03,18.508-.03,28.9v7.479a34.816,34.816,0,0,1-.272,3.676,20.265,20.265,0,0,1-.545,2.789,12.1,12.1,0,0,1-1.24,3.169c-.363.634-.575.887-.635,1.014a1.489,1.489,0,0,1-.968.254c.689.673,1.408.586,2.087-.254a7.993,7.993,0,0,0,1.422-2.789,28.015,28.015,0,0,0,1.119-5.578c.064-.57.114-1.164.151-1.775.03-.254.03-.634.061-1.014a8.7,8.7,0,0,0,.03-.887q.042-1.407.121-2.789c.061-1.9.151-3.8.242-5.958q.227-6.275.454-13.31C51.788,458.32,51.667,445.516,51.516,434.488Z" transform="translate(291)" fill="#b2d567"/>
  <path id="Path-2" data-name="Path" d="M8.539,3.571A154.578,154.578,0,0,0,46,1.658C28.893.128,12.838,2.551,0,0V2.934C2.976,3.189,5.833,3.316,8.539,3.571Z" transform="translate(291 502.014)" fill="#b2d567"/>
  <path id="Path-3" data-name="Path" d="M21.249,2.831l-4.9-.643L20.322,1.8C18.29,1.158,23.55.643,22.952,0H8.488c7.74.515,2.63,1.287.389,1.93L1.435,1.673c1.733.257,6.336.515.9.9H0V3.732C11.207,4.375,12.193,3.732,21.249,2.831Z" transform="translate(318 502.012)" fill="#b2d567"/>
  <path id="Path-4" data-name="Path" d="M55.94,503.751c-.3,0-.6-.127-.895-.127h.895v-1.268c-2.564,0-5.457.127-7.991-.127l5.934-1.395c-9.125,1.014-15.983-1.522-25.108-.507L26,498.933l-8.588.127.984-.507-10.317-.127a22.549,22.549,0,0,0-3.37.254,1.117,1.117,0,0,0-.626.127H3.459c-.238-.051-.472-.31-.686-.761a10.253,10.253,0,0,1-.209-1.775v-4.311c0-3.3,0-6.34-.03-9.129,0-5.706,0-10.4.06-13.187l.268,15.849.089-14.708c-.089,10.017-.179-12.172-.268-15.849.06-32.84.03-23.2.239-43.871-.179-21.3.149-47.421-.209-48.689.209-38.926.209-80.26.209-117.284l-.239-16.1c.239-43.871-.06-63.777-.119-109.3l.089,3.55L2.386,98.582c.089-17.244.03-29.163-.06-41.715-.03-6.34-.06-12.806-.06-20.16,0-3.677,0-7.608.03-11.919,0-2.155.03-4.311.03-6.593q-.007-1.777.03-3.55V13c0-.254.03-.507.03-.761a7.06,7.06,0,0,1,.6-2.663,2.739,2.739,0,0,1,.447-.634.848.848,0,0,1,.686-.127H8.2c2.535-.127,4.711-.254,6.59-.38a42.679,42.679,0,0,0,8.588-1.9c6.53-.761,14.76.254,20.665.38L40.2,7.417l4.89.634c5.218-.127,7.4,0,10.854-.127V0C48.814.127,42.88,1.141,33.666.634c8.051.888-3.7.634-2.8,1.648-1.879-.507-9.333-.634-6.8-1.014a137.094,137.094,0,0,0-14.7.38c-1.1,0-2.207.127-3.25.127H3.459c-.119,0-.268.127-.388.127-.928.593-1.78,2.516-2.415,5.452a28.361,28.361,0,0,0-.507,4.184c-.03.38-.03.761-.06,1.014s-.03.634-.03,1.014C.03,14.2.03,14.835,0,15.342L.149,27.578C.388,48.372.089,64.982,0,84.128L.209,86.79C.328,99.47.3,122.673.119,133.7,0,167.051.447,208.766.686,243.254c-.209,34.234.358,19.4.507,50.21-.119,19.653.149,53.634-.119,65.679-.03-27.261-.6-31.064-.477-59.91-.179,11.031-.209-48.689-.477-22.95C.6,331.565.149,400.161.626,450.878c-.209-1.775-.3,13.947-.3,32.966v11.792l.03,1.014c.026.648.066,1.285.119,1.9a19.154,19.154,0,0,0,1.431,6.213,3.4,3.4,0,0,0,1.133,1.522,2,2,0,0,0,1.163.254c2.952-.127,5.576-.127,7.335-.254l.447.507a156.678,156.678,0,0,0,20.068-.254c8.23-.127,16.4-.254,23.945,0v-2.789Z" transform="translate(0 0.998)" fill="#b2d567"/>
  <path id="Path-5" data-name="Path" d="M0,2.258,236.223,0V3.338L84.085,5.988,0,5.6V2.258Z" transform="translate(55.379 502.012)" fill="#b2d567"/>
  <path id="Path-6" data-name="Path" d="M0,1.141,235,0V8.84L194.181,5.7l-55.266.713L43.552,9.267,1.051,6.416,0,9.98" transform="translate(56)" fill="none"/>
</svg>
