<svg id="Group_1" data-name="greenborder" xmlns="http://www.w3.org/2000/svg" width="100%" height="100%" viewBox="0 0 1317 476">
  <path id="Path" d="M195.166,407.063c1.834-55.938-2.521-84.323-1.6-142.162,0-51.425-1.031-87.886-.115-137.292-2.063-8.076-1.834-32.067-1.49-58.67.229-13.3.344-27.2.458-40.143V12.525a7.182,7.182,0,0,0-.229-1.544l-.115-.713-.229-.713c-1.375-3.919-5.042-6.888-9.168-8.314A20.367,20.367,0,0,0,176.143.174h-2.521c-.8,0-1.49.119-2.292.119-31.745.356-48.935,1.663-24.754,2.138-43.892.119-32.661-1.188-69.334-.713L89.618.649C77.585.411,64.177-.182,48.362.055L30.484,1.183C19.368.827,9.4.827,0,.827V8.19c8.251,0,18.565-.119,34.724-.356,57.759.594,48.935-1.663,73.574-2.375l55.238,1.306-1.261-.238c4.126-.238,7.564-.356,10.543-.475.8,0,1.49-.119,2.177-.119h1.719a10.254,10.254,0,0,1,2.865.594,8.737,8.737,0,0,1,4.24,2.969,8,8,0,0,1,1.031,2.257c0,.238.115.356.115.594V14.6c0,9.145-.344,22.684-.229,52.732l1.146-2.732c-1.261,20.19.573,28.86.458,54.751.115,12.708-1.834,51.663-.458,73.991-1.146,45.606,2.292,67.7,2.063,106.889-.8,23.515,1.146,40.261-.8,44.774v-4.276l-1.834,8.789,1.375,1.069c-.458,14.133,0,34.442-1.49,46.556l2.407,32.779c-.229-8.076-.115-16.983.115-25.891l-.344.95c0-8.551-.344-29.335.229-39.192l.458,11.876c.344-13.658.917-2.257,1.146,1.544-.688,27.316.688,19.834.917,40.736-.115,4.751-.344,13.658-.688,10.333.115,6.176-.115,17.34-.115,27.078v7.007a9.191,9.191,0,0,1-1.031,3.444,9.286,9.286,0,0,1-2.063,2.613,15.134,15.134,0,0,1-4.7,2.969c-1.375.594-2.177.831-2.407.95a20.248,20.248,0,0,1-3.667.238,14.982,14.982,0,0,0,7.908-.238,16.079,16.079,0,0,0,5.386-2.613,13.373,13.373,0,0,0,4.24-5.226,9.538,9.538,0,0,0,.573-1.663c.115-.238.115-.594.229-.95a2.089,2.089,0,0,0,.115-.831,25.381,25.381,0,0,1,.458-2.613c.229-1.781.573-3.563.917-5.582q.86-5.879,1.719-12.47C196.2,429.391,195.739,417.4,195.166,407.063Z" transform="translate(1120)" fill="#b2d567"/>
  <path id="Path-2" data-name="Path" d="M32.669,3.579C87.425,4.857,152.648,2.94,176,1.661,110.546.128,49.119,2.556,0,0V2.94C11.388,3.2,22.316,3.323,32.669,3.579Z" transform="translate(1119 469)" fill="#b2d567"/>
  <path id="Path-3" data-name="Path" d="M82.224,2.837,63.258,2.192l15.381-.387C70.775,1.16,91.128.645,88.816,0H32.843C62.8.516,43.02,1.289,34.347,1.934l-28.8-.258c6.707.258,24.517.516,3.469.9H0v1.16C43.367,4.384,47.183,3.739,82.224,2.837Z" transform="translate(1119 467)" fill="#b2d567"/>
  <path id="Path-4" data-name="Path" d="M216.769,471.954c-1.155,0-2.311-.119-3.466-.119h3.466v-1.188c-9.937,0-21.145.119-30.967-.119l22.994-1.307c-35.358.95-61.934-1.425-97.292-.475l-10.746-1.307-33.278.119,3.813-.475-39.98-.119c-5.431,0-9.706.119-13.057.238a16.6,16.6,0,0,0-2.427.119H13.4a6.6,6.6,0,0,1-2.658-.713,3.206,3.206,0,0,1-.809-1.663v-4.039c0-3.089,0-5.94-.116-8.553,0-5.346,0-9.741.231-12.354l1.04,14.849.347-13.78c-.347,9.384-.693-11.4-1.04-14.849.231-30.767.116-21.739.924-41.1-.693-19.957.578-44.428-.809-45.616.809-36.469.809-75.194.809-109.881L10.4,214.536c.924-41.1-.231-59.752-.462-102.4l.347,3.326-1.04-23.1c.347-16.155.116-27.322-.231-39.082-.116-5.94-.231-12-.231-18.888,0-3.445,0-7.127.116-11.166,0-2.019.116-4.039.116-6.177a33.152,33.152,0,0,1,.116-3.326V12.176c0-.238.116-.475.116-.713a4.052,4.052,0,0,1,2.311-2.495,9.976,9.976,0,0,1,1.733-.594,12.435,12.435,0,0,1,2.658-.119h15.83C41.6,8.137,50.032,8.018,57.312,7.9,71.987,7.424,82.155,6.83,90.59,6.118c25.305-.713,57.2.238,80.075.356l-14.906.475,18.95.594c20.221-.119,28.656,0,42.06-.119V0c-27.616.119-50.61,1.069-86.315.594,31.2.832-14.328.594-10.862,1.544-7.28-.475-36.167-.594-26.345-.95-20.105-.238-39.633.119-56.965.356-4.275,0-8.551.119-12.595.119H13.4c-.462,0-1.04.119-1.5.119A15.8,15.8,0,0,0,2.542,6.89,8.952,8.952,0,0,0,.578,10.81c-.116.356-.116.713-.231.95a2.376,2.376,0,0,0-.116.95C.116,13.3.116,13.9,0,14.374L.578,25.837C1.5,45.319.347,60.88,0,78.817l.809,2.495c.462,11.879.347,33.618-.347,43.952C0,156.506,1.733,195.588,2.658,227.9c-.809,32.073,1.387,18.175,1.964,47.041-.462,18.413.578,50.248-.462,61.533-.116-25.54-2.311-29.1-1.849-56.128C1.618,290.68,1.5,234.73.462,258.844,2.311,310.637.578,374.9,2.427,422.419c-.809-1.663-1.155,13.067-1.155,30.886v11.047l.116.95a10.117,10.117,0,0,0,.462,1.782A11.168,11.168,0,0,0,7.4,472.9a13.675,13.675,0,0,0,4.391,1.425,29.39,29.39,0,0,0,4.506.238c11.439-.119,21.608-.119,28.425-.238l1.733.475c23.341.238,40.673.356,77.764-.238,31.891-.119,63.552-.238,92.785,0v-2.613Z" transform="translate(0 1)" fill="#b2d567"/>
  <path id="Path-5" data-name="Path" d="M0,2.639,905.743,0V3.9L322.4,7,0,6.541v-3.9Z" transform="translate(213.257 469)" fill="#b2d567"/>
  <path id="Path-6" data-name="Path" d="M0,.914,902,0V7.086L745.326,4.571,533.2,5.143,167.165,7.429,4.035,5.143,0,8" transform="translate(216)" fill="none"/>
</svg>
