<?xml version="1.0" encoding="UTF-8"?>
<svg width="40px" height="40px" viewBox="0 0 40 40" version="1.1" xmlns="http://www.w3.org/2000/svg" xmlns:xlink="http://www.w3.org/1999/xlink">
    <title>Instagram</title>
    <g id="Page-1" stroke="none" stroke-width="1" fill="none" fill-rule="evenodd">
        <g id="M-Nav-Update-01" transform="translate(-106.000000, -559.000000)">
            <g id="Website" transform="translate(42.000000, 559.000000)">
                <g id="Instagram" transform="translate(64.000000, 0.000000)">
                    <circle id="Oval" fill="#F3576B" cx="20" cy="20" r="20"></circle>
                    <g id="iconfinder_1_Instagram_colored_svg_1_5296765" transform="translate(8.000000, 8.000000)" fill="#FFFFFF" fill-rule="nonzero">
                        <path d="M12,0 C8.74096875,0 8.3323125,0.013828125 7.05239062,0.072234375 C5.77514062,0.1305 4.90279687,0.333328125 4.13948437,0.63 C3.35039062,0.93665625 2.68115625,1.347 2.01407812,2.014125 C1.34695312,2.68120312 0.936609375,3.3504375 0.629953125,4.13953125 C0.33328125,4.90279687 0.130453125,5.77514062 0.0721875,7.05239062 C0.01378125,8.3323125 0,8.74096875 0,12 C0,15.2589375 0.01378125,15.6675937 0.0721875,16.9475156 C0.130453125,18.2247656 0.33328125,19.0971094 0.629953125,19.860375 C0.936609375,20.6494688 1.34695312,21.3187031 2.01407812,21.985875 C2.68115625,22.6529531 3.35039062,23.0632969 4.13948437,23.3699531 C4.90279687,23.6665781 5.77514062,23.8694531 7.05239062,23.9277187 C8.3323125,23.9860781 8.74096875,23.9999062 12,23.9999062 C15.2589375,23.9999062 15.6675937,23.9860781 16.9475156,23.9277187 C18.2247656,23.8694531 19.0971094,23.6665781 19.860375,23.3699531 C20.6494688,23.0632969 21.3187031,22.6529531 21.985875,21.985875 C22.6529531,21.3187031 23.0632969,20.6494688 23.3699531,19.860375 C23.6665781,19.0971094 23.8694531,18.2247656 23.9277187,16.9475156 C23.9860781,15.6675937 23.9999062,15.2589375 23.9999062,12 C23.9999062,8.74096875 23.9860781,8.3323125 23.9277187,7.05239062 C23.8694531,5.77514062 23.6665781,4.90279687 23.3699531,4.13953125 C23.0632969,3.3504375 22.6529531,2.68120312 21.985875,2.014125 C21.3187031,1.347 20.6494688,0.93665625 19.860375,0.63 C19.0971094,0.333328125 18.2247656,0.1305 16.9475156,0.072234375 C15.6675937,0.013828125 15.2589375,0 12,0 Z M12,2.16220312 C15.2040938,2.16220312 15.5836406,2.17439062 16.8489844,2.23214062 C18.0189375,2.28553125 18.6543281,2.481 19.0771875,2.64529687 C19.6372969,2.86298437 20.0370469,3.12304687 20.4569531,3.54295312 C20.8769063,3.96285937 21.1369219,4.36265625 21.3546094,4.92271875 C21.5189531,5.34557812 21.7144219,5.98096875 21.7678125,7.15092187 C21.8255156,8.4163125 21.83775,8.79585937 21.83775,12 C21.83775,15.2040937 21.8255156,15.5836406 21.7678125,16.8489844 C21.7144219,18.0189375 21.5189531,18.6543281 21.3546094,19.0771875 C21.1369219,19.6372969 20.8769063,20.0370469 20.4569531,20.4569531 C20.0370469,20.8769062 19.6372969,21.1369219 19.0771875,21.3546094 C18.6543281,21.5189531 18.0189375,21.7144219 16.8489844,21.7677656 C15.5838281,21.8255156 15.2043281,21.83775 12,21.83775 C8.79557813,21.83775 8.41617188,21.8255156 7.15092188,21.7677656 C5.98096875,21.7144219 5.34557813,21.5189531 4.92271875,21.3546094 C4.36260938,21.1369219 3.96285938,20.8769062 3.54290625,20.4569531 C3.123,20.0370469 2.8629375,19.6372969 2.64529688,19.0771875 C2.48095313,18.6543281 2.28548438,18.0189375 2.23209375,16.8489844 C2.17434375,15.5836406 2.16215625,15.2040938 2.16215625,12 C2.16215625,8.79585937 2.17434375,8.4163125 2.23209375,7.15092188 C2.28548438,5.98096875 2.48095313,5.34557813 2.64529688,4.92271875 C2.8629375,4.36265625 3.123,3.96285938 3.54290625,3.54295313 C3.96285938,3.12304688 4.36260938,2.86298438 4.92271875,2.64529688 C5.34557813,2.481 5.98096875,2.28553125 7.15092188,2.23214063 C8.4163125,2.17439063 8.79585938,2.16220312 12,2.16220312 L12,2.16220312 Z" id="Shape"></path>
                        <path d="M12,15.9999375 C9.79082813,15.9999375 7.99996875,14.2090781 7.99996875,12 C7.99996875,9.79082813 9.79082812,7.99996875 12,7.99996875 C14.2090781,7.99996875 15.9999375,9.79082812 15.9999375,12 C15.9999375,14.2090781 14.2090781,15.9999375 12,15.9999375 Z M12,5.8378125 C8.5966875,5.8378125 5.8378125,8.5966875 5.8378125,12 C5.8378125,15.4032187 8.5966875,18.1620937 12,18.1620937 C15.4032187,18.1620937 18.1620938,15.4032187 18.1620938,12 C18.1620938,8.5966875 15.4032187,5.8378125 12,5.8378125 Z" id="Shape"></path>
                        <path d="M19.8455625,5.59434375 C19.8455625,6.38967187 19.2008438,7.03434375 18.4055625,7.03434375 C17.6102813,7.03434375 16.9655625,6.38967187 16.9655625,5.59434375 C16.9655625,4.7990625 17.6102813,4.15439062 18.4055625,4.15439062 C19.2008438,4.15439062 19.8455625,4.7990625 19.8455625,5.59434375 L19.8455625,5.59434375 Z" id="Path"></path>
                    </g>
                </g>
            </g>
        </g>
    </g>
</svg>