<?xml version="1.0" encoding="UTF-8"?>
<svg width="40px" height="40px" viewBox="0 0 40 40" version="1.1" xmlns="http://www.w3.org/2000/svg" xmlns:xlink="http://www.w3.org/1999/xlink">
    <title>Facebook</title>
    <g id="Page-1" stroke="none" stroke-width="1" fill="none" fill-rule="evenodd">
        <g id="M-Nav-Update-01" transform="translate(-42.000000, -559.000000)">
            <g id="Website" transform="translate(42.000000, 559.000000)">
                <g id="Facebook">
                    <circle id="Oval" fill="#F3576B" cx="20" cy="20" r="20"></circle>
                    <g id="iconfinder_1_Facebook2_colored_svg_5296500" transform="translate(14.000000, 8.000000)" fill="#FFFFFF" fill-rule="nonzero">
                        <path d="M11.9646094,13.3980469 L12.6257344,9.087375 L8.4898125,9.087375 L8.4898125,6.29001562 C8.4898125,5.1106875 9.06754687,3.96117187 10.9200469,3.96117187 L12.8005313,3.96117187 L12.8005313,0.29128125 C12.8005313,0.29128125 11.0939062,-1.59872116e-14 9.462375,-1.59872116e-14 C6.05596875,-1.59872116e-14 3.82964063,2.06446875 3.82964063,5.80195312 L3.82964063,9.087375 L0.04321875,9.087375 L0.04321875,13.3980469 L3.82964063,13.3980469 L3.82964063,23.8188281 C4.588875,23.9379844 5.36704687,24 6.15975,24 C6.95245312,24 7.730625,23.9379844 8.4898125,23.8188281 L8.4898125,13.3980469 L11.9646094,13.3980469 Z" id="Path"></path>
                    </g>
                </g>
            </g>
        </g>
    </g>
</svg>