<?xml version="1.0" encoding="UTF-8"?>
<svg width="40px" height="40px" viewBox="0 0 40 40" version="1.1" xmlns="http://www.w3.org/2000/svg" xmlns:xlink="http://www.w3.org/1999/xlink">
    <title>Pinterest</title>
    <g id="Page-1" stroke="none" stroke-width="1" fill="none" fill-rule="evenodd">
        <g id="M-Nav-Update-01" transform="translate(-170.000000, -559.000000)">
            <g id="Website" transform="translate(42.000000, 559.000000)">
                <g id="Pinterest" transform="translate(128.000000, 0.000000)">
                    <circle id="Oval" fill="#F3576B" cx="20" cy="20" r="20"></circle>
                    <g id="iconfinder_33-pinterest_104469" transform="translate(11.000000, 8.000000)" fill="#FFFFFF" fill-rule="nonzero">
                        <path d="M9.61741176,0 C3.224,0 0,4.58352941 0,8.40658824 C0,10.7209412 0.876235294,12.7797647 2.75529412,13.5463529 C3.06352941,13.6734118 3.33976471,13.5510588 3.42917647,13.2098824 C3.49129412,12.9745882 3.63858824,12.3788235 3.704,12.1298824 C3.79388235,11.7924706 3.75905882,11.6748235 3.51011765,11.3797647 C2.96847059,10.7411765 2.62164706,9.91388235 2.62164706,8.74117647 C2.62164706,5.34070588 5.16611765,2.29647059 9.24705882,2.29647059 C12.8607059,2.29647059 14.8461176,4.50447059 14.8461176,7.45270588 C14.8461176,11.3331765 13.1289412,14.608 10.5802353,14.608 C9.17223529,14.608 8.11905882,13.4442353 8.456,12.016 C8.86023529,10.3110588 9.64376471,8.472 9.64376471,7.24047059 C9.64376471,6.13929412 9.05223529,5.22070588 7.82917647,5.22070588 C6.39011765,5.22070588 5.23388235,6.70964706 5.23388235,8.70352941 C5.23388235,9.97364706 5.66305882,10.8329412 5.66305882,10.8329412 C5.66305882,10.8329412 4.19058824,17.0729412 3.93223529,18.1656471 C3.41835294,20.3421176 3.85505882,23.0094118 3.89223529,23.2785882 C3.91388235,23.4385882 4.11905882,23.4771765 4.21223529,23.3567059 C4.34447059,23.1830588 6.05929412,21.0672941 6.64141176,18.9524706 C6.80658824,18.3543529 7.58776471,15.2541176 7.58776471,15.2541176 C8.05552941,16.1463529 9.42211765,16.9303529 10.8752941,16.9303529 C15.2004706,16.9303529 18.1355294,12.9872941 18.1355294,7.70917647 C18.136,3.71717647 14.7552941,0 9.61741176,0 Z" id="Path"></path>
                    </g>
                </g>
            </g>
        </g>
    </g>
</svg>