<?xml version="1.0" encoding="UTF-8"?>
<svg width="40px" height="40px" viewBox="0 0 40 40" version="1.1" xmlns="http://www.w3.org/2000/svg" xmlns:xlink="http://www.w3.org/1999/xlink">
    <title>Twitter</title>
    <g id="Page-1" stroke="none" stroke-width="1" fill="none" fill-rule="evenodd">
        <g id="M-Nav-Update-01" transform="translate(-234.000000, -559.000000)">
            <g id="Website" transform="translate(42.000000, 559.000000)">
                <g id="Twitter" transform="translate(192.000000, 0.000000)">
                    <circle id="Oval" fill="#F3576B" cx="20" cy="20" r="20"></circle>
                    <g id="iconfinder_1_Twitter_colored_svg_5296514" transform="translate(7.710345, 8.944828)">
                        <rect id="Rectangle" x="2.71551724" y="0.436422414" width="19.3965517" height="19.3965517"></rect>
                        <path d="M7.80779095,20.2215356 C17.1767134,20.2215356 22.3011369,12.459472 22.3011369,5.72818966 C22.3011369,5.50774784 22.3011369,5.28827586 22.28625,5.06977371 C23.2831358,4.34865841 24.1437123,3.45588362 24.8275862,2.43310345 C23.897958,2.84503772 22.9116918,3.1151347 21.9019073,3.23452047 C22.9650323,2.59811961 23.7612123,1.5963847 24.1413362,0.417074353 C23.1414925,1.01036638 22.0474784,1.42855603 20.9068157,1.65350754 C19.94368,0.629321121 18.5985291,0.0478609914 17.1927155,0.0478609914 C14.3956358,0.0478609914 12.0940894,2.34945582 12.0940894,5.14643858 C12.0940894,5.53446659 12.1384106,5.92128233 12.226083,6.29922414 C8.13253772,6.09405711 4.3132597,4.15779634 1.7279903,0.977198276 C0.383615302,3.29149784 1.07922414,6.29068966 3.30502694,7.77695043 C2.49449353,7.7529472 1.70136853,7.53425108 0.993103448,7.13938578 L0.993103448,7.2039278 C0.993782328,9.61947737 2.71197737,11.7190086 5.07971444,12.1972791 C4.32984375,12.4017672 3.54287716,12.4316379 2.77971983,12.2846606 C3.44536099,14.3545151 5.36484375,15.7812769 7.53866379,15.8221067 C5.7352694,17.2393642 3.50626616,18.0092134 1.21257543,18.0069343 C0.807284483,18.0061584 0.402381466,17.9816218 0,17.9334213 C2.32923491,19.4281681 5.04019397,20.2212446 7.80779095,20.2175593" id="Path" fill="#FFFFFF" fill-rule="nonzero"></path>
                    </g>
                </g>
            </g>
        </g>
    </g>
</svg>