<svg xmlns="http://www.w3.org/2000/svg" viewBox="0 0 58.96 125.04"><defs><style>.cls-1{fill:#aed250;}.cls-2{fill:#f15d6a;}</style></defs><title>miniraddish</title><g id="Layer_2" data-name="Layer 2"><g id="Layer_1-2" data-name="Layer 1"><path class="cls-1" d="M25.92,64.42c-.2.1-.8-1.1-1-1.1,1.4-5.3,3.5-10.4,4.4-15.8,1.9-12,.9-37.4-1.4-36.3-1.8.9.3,8.6-.3,10.9-.5,3.8,1.7,31.2-5.1,42.6-.3.2-.6-2.9-.7-3.2-.9-3.8,1.7-6,1.7-10.7-1.2-3.3-2.1-5.7-2-9.5,0-3.3,1.1-7.3,1.8-10.6.8-4-6.8-11.3-3-16.4,2.9-4.4,2.3-14.9,7.2-14.3a9.23,9.23,0,0,1,7.8,5.8c3.2,7.2-.5,7.7,2.2,12.5,1.5,2.6,2.3,5.1.7,8.2-.9,1.7-3.6,3.9-2.2,7.8.9,2.7-6.1,11.6-4.1,16C33.42,53.82,29.32,62.72,25.92,64.42Z"/><path class="cls-1" d="M7.42,53.52c-2.2-.8-3.2-2.3-4.2-4.4-1.1-2.4,1.1-3.8.5-7.6a28.88,28.88,0,0,1-3.1-5.8c-.4-1.6-2-11.5,2.3-14.4,3.3-2.3,4.4.6,6.1,2.9,1.5,2,1.6,5.7,2.4,8.5,1.5,2.2,5.2,1.2,6,4.2v10.2c1.9,2,3.4.4,4.1,4.1.9,4.5.4,8.2.5,12.9a.6.6,0,0,1-.4-.1c-1.9-6.2-11.8-25.5-15.6-29.3-.1.4-.1.9-.2,1.3,1.1,1.3,14.4,27.6,14.6,29.1-2.6.8-7.8-6.4-8.1-7.8-.1-.4-.2-3.1-2-3.3A14.31,14.31,0,0,1,7.42,53.52Z"/><path class="cls-2" d="M16.82,124.42c2.6-6.7,5.6-12.1,6.4-16.6.5-2.6,10.5,1.1,17-10.5,3.3-5.9,3-19.3-4.9-23.9s-9.3-1.8-12.5-1.5c-1.7.1-6.2-2.9-6.2-2.9S1.82,66.32.22,84.42s17.7,21.4,17.7,21.4C20.62,109.22,15.12,128.72,16.82,124.42Z"/><path class="cls-1" d="M39.62,57.62c-1.8-.4-3.5,3.4-3.8,3.7-.8,1.2-7.1,6-9.3,4.3.7-1.3,22.1-21.6,23.6-22.4.1-.4.2-.9.3-1.3-4.8,2.3-20.7,17-24.7,22.2-.1,0-.3-.1-.4-.1a57.22,57.22,0,0,1,5.1-10.9c2-3.2,3.4-.4,5.3-2.4,2.3-2.5,3-4.7,4.2-7.9,1.8-2.5,4.3-2,6.4-3.6,1.7-2.4,3.1-5.8,5.2-7.2,2.4-1.6,4.1-5,6.5-1.7,3,4.2-2.1,12-3,13.3a46.48,46.48,0,0,1-4.8,4.3c-2.8,2.7-1.6,4.2-3.5,6.1-1.7,1.7-2.8,3.9-5.2,3.9C40.72,58,41.42,57.92,39.62,57.62Z"/></g></g></svg>