<?xml version="1.0" encoding="UTF-8"?>
<svg width="24px" height="24px" viewBox="0 0 24 24" version="1.1" xmlns="http://www.w3.org/2000/svg" xmlns:xlink="http://www.w3.org/1999/xlink">
    <!-- Generator: Sketch 63.1 (92452) - https://sketch.com -->
    <title>Shape</title>
    <desc>Created with Sketch.</desc>
    <g id="Toast-Message" stroke="none" stroke-width="1" fill="none" fill-rule="evenodd">
        <g id="D_RAD_Bonus-Bites-Post" transform="translate(-782.000000, -319.000000)" fill="#FFFFFF" fill-rule="nonzero">
            <g id="Bonus-Bites-" transform="translate(550.000000, 311.000000)">
                <g id="Print" transform="translate(224.000000, 0.000000)">
                    <path d="M29.2903226,12.6451613 L27.3548387,12.6451613 L27.3548387,10.7096774 C27.3463796,9.21668182 26.1381569,8.0084591 24.6451613,8 L15.3548387,8 C13.8618431,8.0084591 12.6536204,9.21668182 12.6451613,10.7096774 L12.6451613,12.6451613 L10.7096774,12.6451613 C9.21668182,12.6536204 8.0084591,13.8618431 8,15.3548387 L8,24.6451613 C8.0084591,26.1381569 9.21668182,27.3463796 10.7096774,27.3548387 L12.6451613,27.3548387 L12.6451613,29.2903226 C12.6536204,30.7833182 13.8618431,31.9915409 15.3548387,32 L24.6451613,32 C26.1381569,31.9915409 27.3463796,30.7833182 27.3548387,29.2903226 L27.3548387,27.3548387 L29.2903226,27.3548387 C30.7833182,27.3463796 31.9915409,26.1381569 32,24.6451613 L32,15.3548387 C31.9915409,13.8618431 30.7833182,12.6536204 29.2903226,12.6451613 Z M14.9677419,10.7096774 C14.9677419,10.4958898 15.1410511,10.3225806 15.3548387,10.3225806 L24.6451613,10.3225806 C24.8589489,10.3225806 25.0322581,10.4958898 25.0322581,10.7096774 L25.0322581,12.6451613 L14.9677419,12.6451613 L14.9677419,10.7096774 Z M25.0322581,29.2903226 C25.0322581,29.5041102 24.8589489,29.6774194 24.6451613,29.6774194 L15.3548387,29.6774194 C15.1410511,29.6774194 14.9677419,29.5041102 14.9677419,29.2903226 L14.9677419,22.7096774 L25.0322581,22.7096774 L25.0322581,29.2903226 Z M29.6774194,24.6451613 C29.6774194,24.8589489 29.5041102,25.0322581 29.2903226,25.0322581 L27.3548387,25.0322581 L27.3548387,21.5483871 C27.3464994,20.9105104 26.8314251,20.3954361 26.1935484,20.3870968 L13.8064516,20.3870968 C13.1685749,20.3954361 12.6535006,20.9105104 12.6451613,21.5483871 L12.6451613,25.0322581 L10.7096774,25.0322581 C10.4958898,25.0322581 10.3225806,24.8589489 10.3225806,24.6451613 L10.3225806,15.3548387 C10.3225806,15.1410511 10.4958898,14.9677419 10.7096774,14.9677419 L29.2903226,14.9677419 C29.5041102,14.9677419 29.6774194,15.1410511 29.6774194,15.3548387 L29.6774194,24.6451613 Z M27.0141935,16.9032258 C27.4670246,17.3566207 27.4670246,18.0911212 27.0141935,18.5445161 C26.9111485,18.6547241 26.7839438,18.7395273 26.6425806,18.7922581 C26.5005655,18.8527622 26.3479128,18.8843455 26.1935484,18.8851667 C26.0390505,18.8856424 25.8861391,18.8540056 25.7445161,18.7922581 C25.5929378,18.7132314 25.4647875,18.5957603 25.3729032,18.4516129 C25.2679378,18.3442211 25.1839209,18.2181957 25.1251613,18.08 C25.0634138,17.938377 25.031777,17.7854656 25.0322527,17.6309677 C25.0555918,17.3555807 25.1763753,17.0975432 25.3729032,16.9032258 C25.480295,16.7982604 25.6063204,16.7142434 25.7445161,16.6554839 C26.0310248,16.5314588 26.3560719,16.5314588 26.6425806,16.6554839 C26.7807763,16.7142434 26.9068018,16.7982604 27.0141935,16.9032258 Z" id="Shape"></path>
                </g>
            </g>
        </g>
    </g>
</svg>