<svg id="Layer_1" data-name="Layer 1" xmlns="http://www.w3.org/2000/svg" viewBox="0 0 90.28 192"><defs><style>.cls-1{fill:#a1ce57;}.cls-2{fill:#f3576b;}</style></defs><path class="cls-1" d="M39.82,98.83c-.27.13-1.27-1.6-1.57-1.68,2.2-8,5.33-15.84,6.63-24C47.78,54.92,46.2,16.23,42.8,18c-2.75,1.41.5,13.1-.44,16.52-.79,5.84,2.52,47.49-7.83,64.68-.41.29-.89-4.44-1.09-4.91C32.1,88.55,36,85.1,36,78.06c-1.87-5-3.11-8.63-3.1-14.39,0-5.05,1.67-11.14,2.68-16.18,1.19-6.06-10.29-17.2-4.58-25C35.73,16,34.85.13,42.32,1c4.72.58,9.12,2.68,11.82,8.79,4.8,10.9-.73,11.66,3.34,18.94,2.2,3.93,3.46,7.75,1.08,12.46-1.31,2.56-5.47,5.9-3.35,11.86,1.43,4.07-9.21,17.66-6.29,24.32,2.33,5.33-3.85,18.92-9.1,21.42"/><path class="cls-1" d="M11.79,82.25c-3.33-1.17-4.89-3.44-6.4-6.72C3.72,71.94,7.12,69.79,6.18,64a32.76,32.76,0,0,1-4.7-8.65c-.62-2.43-3.1-17.47,3.43-22,5.09-3.49,6.72.91,9.33,4.38,2.27,3,2.45,8.6,3.67,12.92C20.14,54,25.76,52.46,27,57c0,5.19,0,10.38,0,15.55,2.94,3,5.13.61,6.31,6.18,1.37,6.78.58,12.51.71,19.6-.21,0-.44-.06-.65-.08-3-9.42-18.08-38.66-23.82-44.47-.09.68-.18,1.37-.26,2,1.7,2,21.88,42,22.2,44.25-3.89,1.25-11.83-9.78-12.38-11.9-.17-.68-.25-4.64-3-5.05s-3.32-.37-4.36-.85"/><path class="cls-2" d="M26,190c3.88-10.17,8.45-18.46,9.73-25.17.74-3.89,15.93,1.72,25.79-16,5-8.93,4.57-29.36-7.46-36.32s-14.17-2.7-18.93-2.29c-2.57.21-9.42-4.31-9.42-4.31S3.28,101.85.82,129.27s26.93,32.45,26.93,32.45C31.84,167,23.44,196.67,26,190"/><path class="cls-1" d="M60.65,88.49c-2.73-.55-5.34,5.11-5.74,5.7-1.24,1.81-10.85,9.08-14.09,6.59,1.06-2,33.65-32.84,35.91-34.09.14-.66.3-1.34.45-2C69.81,68.2,45.64,90.56,39.67,98.42L39,98.27c2.53-6.62,4.13-10.71,7.71-16.63,3-4.83,5.23-.56,8-3.65,3.48-3.85,4.55-7.18,6.32-12,2.72-3.82,6.49-3,9.72-5.43,2.61-3.64,4.66-8.83,7.83-10.89,3.64-2.39,6.27-7.54,9.87-2.52,4.62,6.42-3.21,18.16-4.62,20.24-1.18,1.73-6.14,5.4-7.36,6.54-4.3,4-2.46,6.39-5.25,9.2-2.53,2.57-4.31,6-7.84,6-1.15.1,0,0-2.79-.56"/></svg>