<?xml version="1.0" encoding="UTF-8"?>
<svg width="18px" height="24px" viewBox="0 0 18 24" version="1.1" xmlns="http://www.w3.org/2000/svg" xmlns:xlink="http://www.w3.org/1999/xlink">
    <!-- Generator: Sketch 63.1 (92452) - https://sketch.com -->
    <title>Shape</title>
    <desc>Created with Sketch.</desc>
    <g id="Toast-Message" stroke="none" stroke-width="1" fill="none" fill-rule="evenodd">
        <g id="D_RAD_Bonus-Bites-Post" transform="translate(-729.000000, -319.000000)" fill="#FFFFFF" fill-rule="nonzero">
            <g id="Bonus-Bites-" transform="translate(550.000000, 311.000000)">
                <g id="Share" transform="translate(168.000000, 0.000000)">
                    <path d="M25.625,15.996789 L26.75,15.996789 C27.9926407,15.996789 29,17.0203435 29,18.282962 L29,29.713827 C29,30.9764455 27.9926407,32 26.75,32 L13.25,32 C12.0073593,32 11,30.9764455 11,29.713827 L11,18.282962 C11,17.0203435 12.0073593,15.996789 13.25,15.996789 L14.375,15.996789 C14.9963203,15.996789 15.5,16.5085663 15.5,17.1398755 C15.5,17.7711847 14.9963203,18.282962 14.375,18.282962 L13.25,18.282962 L13.25,29.713827 L26.75,29.713827 L26.75,18.282962 L25.625,18.282962 C25.0036797,18.282962 24.5,17.7711847 24.5,17.1398755 C24.5,16.5085663 25.0036797,15.996789 25.625,15.996789 Z M21.125,11.9027414 L21.125,21.7122215 C21.125,22.3435307 20.6213203,22.855308 20,22.855308 C19.3786797,22.855308 18.875,22.3435307 18.875,21.7122215 L18.875,11.9027414 L17.6135146,13.1845076 C17.1741748,13.6309106 16.4618642,13.6309106 16.0225244,13.1845076 C15.5831845,12.7381045 15.5831845,12.0143422 16.0225244,11.5679391 L19.2045048,8.33480228 C19.6438447,7.88839924 20.3561553,7.88839924 20.7954952,8.33480228 L23.9774756,11.5679391 C24.4168155,12.0143422 24.4168155,12.7381045 23.9774756,13.1845076 C23.5381358,13.6309106 22.8258252,13.6309106 22.3864853,13.1845076 L21.125,11.9027414 Z" id="Shape"></path>
                </g>
            </g>
        </g>
    </g>
</svg>