<svg xmlns="http://www.w3.org/2000/svg" width="23" height="24" viewBox="0 0 23 24">
  <path id="User" d="M22.2,24H.8a.757.757,0,0,1-.8-.8A11.467,11.467,0,0,1,8.465,12.06,7.133,7.133,0,0,1,6.15,9.977a6.374,6.374,0,0,1-.958-4.808A6.391,6.391,0,0,1,11.443,0,6.689,6.689,0,0,1,12.7.121a6.5,6.5,0,0,1,4.073,2.744,6.228,6.228,0,0,1,.958,4.788,6.41,6.41,0,0,1-3.274,4.407A11.442,11.442,0,0,1,23,23.2.758.758,0,0,1,22.2,24ZM11.5,13.262A9.966,9.966,0,0,0,1.6,22.4H21.4A9.968,9.968,0,0,0,11.5,13.262Zm0-11.7a4.425,4.425,0,0,0-2.635.8A4.557,4.557,0,0,0,6.788,5.409a4.758,4.758,0,0,0,.719,3.606A4.685,4.685,0,0,0,10.622,11.1a3.225,3.225,0,0,0,.888.12,3.907,3.907,0,0,0,.948-.12,4.791,4.791,0,0,0,3.753-3.767,4.8,4.8,0,0,0-3.753-5.69A3.9,3.9,0,0,0,11.5,1.562Z" transform="translate(0 0)" fill="#4d4d4d"/>
</svg>
